<svg xmlns="http://www.w3.org/2000/svg" width="90" height="85" viewBox="0 0 18 17">
  <metadata><?xpacket begin="﻿" id="W5M0MpCehiHzreSzNTczkc9d"?>
<x:xmpmeta xmlns:x="adobe:ns:meta/" x:xmptk="Adobe XMP Core 5.6-c138 79.159824, 2016/09/14-01:09:01        ">
   <rdf:RDF xmlns:rdf="http://www.w3.org/1999/02/22-rdf-syntax-ns#">
      <rdf:Description rdf:about=""/>
   </rdf:RDF>
</x:xmpmeta>
                                                                                                    
                                                                                                    
                                                                                                    
                                                                                                    
                                                                                                    
                                                                                                    
                                                                                                    
                                                                                                    
                                                                                                    
                                                                                                    
                                                                                                    
                                                                                                    
                                                                                                    
                                                                                                    
                                                                                                    
                                                                                                    
                                                                                                    
                                                                                                    
                                                                                                    
                                                                                                    
                           
<?xpacket end="w"?></metadata>
<defs>
    <style>
      .cls-1 {
        fill: #343e5c;
        fill-rule: evenodd;
      }
    </style>
  </defs>
  <path id="Shopping_Cart_Icon" data-name="Shopping Cart Icon" class="cls-1" d="M18,4.052L17,7.04c-0.371.838-.9,1.991-2,1.991H5.36l0.118,1H18l-1,1.991H4.352l-0.643.075L2.522,2.061H1a1,1,0,0,1-1-1A0.976,0.976,0,0,1,.9.008L4.291-.006l0.254,2.15A1.2,1.2,0,0,1,5,2.061H17C18.105,2.061,18,2.952,18,4.052ZM6,13.015a1.992,1.992,0,1,1-2,1.992A2,2,0,0,1,6,13.015Zm8,0a1.992,1.992,0,1,1-2,1.992A2,2,0,0,1,14,13.015Z"/>
</svg>
