<svg xmlns="http://www.w3.org/2000/svg" width="199" height="140" viewBox="0 0 199 140">
  <metadata><?xpacket begin="﻿" id="W5M0MpCehiHzreSzNTczkc9d"?>
<x:xmpmeta xmlns:x="adobe:ns:meta/" x:xmptk="Adobe XMP Core 5.6-c138 79.159824, 2016/09/14-01:09:01        ">
   <rdf:RDF xmlns:rdf="http://www.w3.org/1999/02/22-rdf-syntax-ns#">
      <rdf:Description rdf:about=""/>
   </rdf:RDF>
</x:xmpmeta>
                                                                                                    
                                                                                                    
                                                                                                    
                                                                                                    
                                                                                                    
                                                                                                    
                                                                                                    
                                                                                                    
                                                                                                    
                                                                                                    
                                                                                                    
                                                                                                    
                                                                                                    
                                                                                                    
                                                                                                    
                                                                                                    
                                                                                                    
                                                                                                    
                                                                                                    
                                                                                                    
                           
<?xpacket end="w"?></metadata>
<defs>
    <style>
      .cls-1 {
        fill: #059feb;
        fill-rule: evenodd;
      }
    </style>
  </defs>
  <path id="Forma_1" data-name="Forma 1" class="cls-1" d="M197.776,121.877h-3.653V12.061A10.092,10.092,0,0,0,184.023,2H18.977a10.092,10.092,0,0,0-10.1,10.061V121.877H5.223A3.217,3.217,0,0,0,2,125.088v6.85A10.093,10.093,0,0,0,12.1,142H190.9A10.093,10.093,0,0,0,201,131.938v-6.85A3.217,3.217,0,0,0,197.776,121.877ZM15.324,12.061a3.65,3.65,0,0,1,3.653-3.639H184.023a3.65,3.65,0,0,1,3.653,3.639V121.877H15.324V12.061ZM194.553,131.938a3.651,3.651,0,0,1-3.654,3.64H12.1a3.651,3.651,0,0,1-3.653-3.64V128.3H84.533c0,0.072-.011.142-0.011,0.214a3.217,3.217,0,0,0,3.224,3.211h27.508a3.217,3.217,0,0,0,3.223-3.211c0-.072-0.006-0.142-0.01-0.214h76.086v3.639ZM177.146,15.7H25.854a3.217,3.217,0,0,0-3.224,3.211v92.477a3.217,3.217,0,0,0,3.224,3.211H177.146a3.217,3.217,0,0,0,3.223-3.211V18.911A3.217,3.217,0,0,0,177.146,15.7ZM29.078,22.122h76.075v86.055H97.847V87.413a13.363,13.363,0,0,0-2.135-7.255,3.2,3.2,0,0,0,1.325-5.149c-3.855-4.336-6.066-12.3-6.066-21.846a23.854,23.854,0,0,0-47.708,0c0,9.548-2.211,17.51-6.066,21.846a3.2,3.2,0,0,0,1.325,5.149,13.362,13.362,0,0,0-2.135,7.255v20.764H29.078V22.122Zm52.006,31.04a13.975,13.975,0,0,1-27.855,1.56c7.443-1.678,16.8-4.789,24.491-10.51A13.676,13.676,0,0,1,81.084,53.162Zm-18.8,19.757a20.4,20.4,0,0,0,9.657,0A18.32,18.32,0,0,0,81.006,78.6a13.974,13.974,0,0,1-27.782,0A18.322,18.322,0,0,0,62.287,72.918ZM78.28,70.175a20.5,20.5,0,0,0,6.943-7.637,39.753,39.753,0,0,0,3.308,11.111C84.957,73.21,80.883,72.214,78.28,70.175ZM50.27,48.788a17.428,17.428,0,0,1,25.083-10.9C67.473,44.412,56.624,47.474,50.27,48.788Zm-1.262,13.75a20.5,20.5,0,0,0,6.943,7.638c-2.6,2.039-6.678,3.035-10.251,3.473A39.75,39.75,0,0,0,49.008,62.537ZM42.832,87.413a7.071,7.071,0,0,1,4.234-6.46,20.427,20.427,0,0,0,40.1,0,7.069,7.069,0,0,1,4.234,6.46v20.764H42.832V87.413Zm131.091,20.764H111.6V22.122h62.322v86.055Zm-51.791-65.5h3.653v0.214a3.224,3.224,0,0,0,6.447,0V42.672h31.161a3.211,3.211,0,1,0,0-6.422H132.231V36.036a3.224,3.224,0,0,0-6.447,0V36.25h-3.653A3.211,3.211,0,1,0,122.131,42.672Zm0,17.125h31.16v0.214a3.224,3.224,0,0,0,6.448,0V59.8h3.653a3.211,3.211,0,1,0,0-6.422h-3.653V53.162a3.224,3.224,0,0,0-6.448,0v0.214h-31.16A3.211,3.211,0,1,0,122.131,59.8Zm0,17.125h20.845v0.215a3.224,3.224,0,0,0,6.447,0V76.923h13.969a3.211,3.211,0,1,0,0-6.422H149.423V70.287a3.224,3.224,0,0,0-6.447,0V70.5H122.131A3.211,3.211,0,1,0,122.131,76.923Zm41.261,10.7H139.108V87.413a3.224,3.224,0,0,0-6.447,0v0.214h-10.53a3.211,3.211,0,1,0,0,6.422h10.53v0.214a3.224,3.224,0,0,0,6.447,0V94.049h24.284A3.211,3.211,0,1,0,163.392,87.627Z" transform="translate(-2 -2)"/>
</svg>
