<svg xmlns="http://www.w3.org/2000/svg" width="195" height="128" viewBox="0 0 195 128">
  <metadata><?xpacket begin="﻿" id="W5M0MpCehiHzreSzNTczkc9d"?>
<x:xmpmeta xmlns:x="adobe:ns:meta/" x:xmptk="Adobe XMP Core 5.6-c138 79.159824, 2016/09/14-01:09:01        ">
   <rdf:RDF xmlns:rdf="http://www.w3.org/1999/02/22-rdf-syntax-ns#">
      <rdf:Description rdf:about=""/>
   </rdf:RDF>
</x:xmpmeta>
                                                                                                    
                                                                                                    
                                                                                                    
                                                                                                    
                                                                                                    
                                                                                                    
                                                                                                    
                                                                                                    
                                                                                                    
                                                                                                    
                                                                                                    
                                                                                                    
                                                                                                    
                                                                                                    
                                                                                                    
                                                                                                    
                                                                                                    
                                                                                                    
                                                                                                    
                                                                                                    
                           
<?xpacket end="w"?></metadata>
<defs>
    <style>
      .cls-1 {
        fill: #059feb;
        fill-rule: evenodd;
      }
    </style>
  </defs>
  <path id="Forma_1" data-name="Forma 1" class="cls-1" d="M185.1,0H9.9A9.923,9.923,0,0,0,0,9.927V118.072A9.923,9.923,0,0,0,9.9,128H185.1a9.923,9.923,0,0,0,9.9-9.927V9.927A9.923,9.923,0,0,0,185.1,0ZM9.9,6.336H185.1a3.588,3.588,0,0,1,3.579,3.591V30.416H185.1a0.212,0.212,0,0,1-.211-0.211V23.445a6.545,6.545,0,0,0-6.528-6.548H16.636a6.545,6.545,0,0,0-6.528,6.548V30.2a0.212,0.212,0,0,1-.211.211H6.317V9.927A3.589,3.589,0,0,1,9.9,6.336ZM185.1,121.663H9.9a3.59,3.59,0,0,1-3.58-3.591V36.752H9.9A6.545,6.545,0,0,0,16.426,30.2V23.445a0.211,0.211,0,0,1,.21-0.211H178.364a0.211,0.211,0,0,1,.21.211V30.2a6.546,6.546,0,0,0,6.529,6.548h3.579v81.32A3.589,3.589,0,0,1,185.1,121.663Zm-14.376-77.73H24.274a3.157,3.157,0,0,0-2.563,1.316,43.633,43.633,0,0,0,0,51.018,3.156,3.156,0,0,0,2.563,1.315H37.991l0.015,0,0.023,0h132.7a3.158,3.158,0,0,0,2.563-1.315,43.631,43.631,0,0,0,0-51.018A3.154,3.154,0,0,0,170.727,43.933ZM141.091,64.558a6.967,6.967,0,0,1,0,12.4v-12.4Zm-6.318,26.689H60.227V50.27h74.546V91.247Zm-95.6,0a27.276,27.276,0,0,1,0-40.976h6.549a23.463,23.463,0,0,0,0,40.976H39.173ZM53.909,76.959a6.967,6.967,0,0,1,0-12.4v12.4Zm0-19.123a13.315,13.315,0,0,0,0,25.845v3.888a17.115,17.115,0,0,1,0-33.619v3.886ZM19.795,70.758A37.122,37.122,0,0,1,25.932,50.27h4.6a33.688,33.688,0,0,0,0,40.976h-4.6A37.12,37.12,0,0,1,19.795,70.758ZM169.068,91.247H141.091V83.681a13.315,13.315,0,0,0,0-25.845V50.27h27.977A37.268,37.268,0,0,1,169.068,91.247Z"/>
</svg>
