<svg xmlns="http://www.w3.org/2000/svg" width="143.781" height="139" viewBox="0 0 143.781 139">
  <metadata><?xpacket begin="﻿" id="W5M0MpCehiHzreSzNTczkc9d"?>
<x:xmpmeta xmlns:x="adobe:ns:meta/" x:xmptk="Adobe XMP Core 5.6-c138 79.159824, 2016/09/14-01:09:01        ">
   <rdf:RDF xmlns:rdf="http://www.w3.org/1999/02/22-rdf-syntax-ns#">
      <rdf:Description rdf:about=""/>
   </rdf:RDF>
</x:xmpmeta>
                                                                                                    
                                                                                                    
                                                                                                    
                                                                                                    
                                                                                                    
                                                                                                    
                                                                                                    
                                                                                                    
                                                                                                    
                                                                                                    
                                                                                                    
                                                                                                    
                                                                                                    
                                                                                                    
                                                                                                    
                                                                                                    
                                                                                                    
                                                                                                    
                                                                                                    
                                                                                                    
                           
<?xpacket end="w"?></metadata>
<defs>
    <style>
      .cls-1 {
        fill: #059feb;
        fill-rule: evenodd;
      }
    </style>
  </defs>
  <path id="Forma_1" data-name="Forma 1" class="cls-1" d="M33.421,54.07A26.041,26.041,0,1,1,59.679,28.031,26.175,26.175,0,0,1,33.421,54.07Zm0-43.692a17.652,17.652,0,1,0,17.8,17.653A17.743,17.743,0,0,0,33.421,10.378ZM21.778,30.128a2.1,2.1,0,0,1-2.115-2.1l-0.008-.419a5.409,5.409,0,0,1,.118-1.443A2.126,2.126,0,0,1,22.25,24.5a2.1,2.1,0,0,1,1.679,2.456,1.537,1.537,0,0,0-.044.514l0.011,0.56A2.108,2.108,0,0,1,21.778,30.128ZM23.743,23.7a2.13,2.13,0,0,1-1.176-.354,2.089,2.089,0,0,1-.579-2.911,13.772,13.772,0,0,1,11.433-6.055,2.1,2.1,0,1,1,0,4.194A9.54,9.54,0,0,0,25.5,22.773,2.115,2.115,0,0,1,23.743,23.7ZM92.628,54.07a26.041,26.041,0,1,1,26.258-26.039A26.175,26.175,0,0,1,92.628,54.07Zm0-43.692a17.652,17.652,0,1,0,17.8,17.653A17.743,17.743,0,0,0,92.628,10.378ZM82.95,23.7a2.129,2.129,0,0,1-1.176-.354,2.089,2.089,0,0,1-.58-2.911,13.772,13.772,0,0,1,11.433-6.055,2.1,2.1,0,1,1,0,4.194,9.54,9.54,0,0,0-7.919,4.195A2.115,2.115,0,0,1,82.95,23.7Zm12.484,117.3H16.906c-8.219,0-14.91-5.3-14.91-13.156V73.036c0-8.167,6.963-15.918,14.91-15.918H95.434c8.082,0,14.658,7.066,14.658,15.226,0,0.1,0,.413-0.011.513l-0.105,1.573c6.218-3.211,15.73-8.167,22.376-11.695a13.308,13.308,0,0,1,5.793-1.529,7.05,7.05,0,0,1,5.219,2.158c2.639,2.655,2.423,6.588,2.423,8.259v56.653c0,2.523-.363,4.387-1.416,5.828a6.941,6.941,0,0,1-5.8,2.708h0.131A20.016,20.016,0,0,1,133,135.666a3.916,3.916,0,0,1-.694-0.307c-8.094-4.228-16.823-8.716-22.442-11.509l0.218,3.489a1.556,1.556,0,0,0,.013-0.18C110.086,135.162,103.651,141.007,95.434,141.007Zm-78.528-75.5c-3.3,0-6.452,3.974-6.452,7.529v54.815c0,3.257,2.861,4.767,6.452,4.767H95.434c3.438,0,6.138-2.1,6.2-5.35l-0.624-10.142a3.922,3.922,0,0,1,1.142-3.018,4.191,4.191,0,0,1,3.079-1.266c1.256,0,2.245.025,30.69,14.877,0.44,0.132,1.07.327,1.66,0.468l0-56.7a12,12,0,0,0-.072-1.751,9.04,9.04,0,0,0-1.332.529c-29.2,15.492-29.57,15.5-30.95,15.5a4.243,4.243,0,0,1-3.1-1.336,4.188,4.188,0,0,1-1.123-3.158l0.62-9.058c-0.07-3.417-2.878-6.7-6.2-6.7H16.906v0ZM16.8,91.525a2.1,2.1,0,0,1-2.114-2.1V78.77c0-3.88,3.421-9.07,7.665-9.07H40.31a2.1,2.1,0,1,1,0,4.194H22.349c-1.546,0-3.436,2.921-3.436,4.874V89.426A2.1,2.1,0,0,1,16.8,91.525ZM50.883,73.9H48.768a2.1,2.1,0,1,1,0-4.194h2.114A2.1,2.1,0,1,1,50.883,73.9Z" transform="translate(-2 -2)"/>
</svg>
