<svg xmlns="http://www.w3.org/2000/svg" width="177" height="143" viewBox="0 0 177 143">
  <metadata><?xpacket begin="﻿" id="W5M0MpCehiHzreSzNTczkc9d"?>
<x:xmpmeta xmlns:x="adobe:ns:meta/" x:xmptk="Adobe XMP Core 5.6-c138 79.159824, 2016/09/14-01:09:01        ">
   <rdf:RDF xmlns:rdf="http://www.w3.org/1999/02/22-rdf-syntax-ns#">
      <rdf:Description rdf:about=""/>
   </rdf:RDF>
</x:xmpmeta>
                                                                                                    
                                                                                                    
                                                                                                    
                                                                                                    
                                                                                                    
                                                                                                    
                                                                                                    
                                                                                                    
                                                                                                    
                                                                                                    
                                                                                                    
                                                                                                    
                                                                                                    
                                                                                                    
                                                                                                    
                                                                                                    
                                                                                                    
                                                                                                    
                                                                                                    
                                                                                                    
                           
<?xpacket end="w"?></metadata>
<defs>
    <style>
      .cls-1 {
        fill: #059feb;
        fill-rule: evenodd;
      }
    </style>
  </defs>
  <path id="Forma_1" data-name="Forma 1" class="cls-1" d="M169.962,106H11.039A9.069,9.069,0,0,1,2,96.925V11.078A9.069,9.069,0,0,1,11.039,2H169.962A9.07,9.07,0,0,1,179,11.078V96.925A9.069,9.069,0,0,1,169.962,106ZM11.039,9.333A1.745,1.745,0,0,0,9.3,11.078V96.925a1.745,1.745,0,0,0,1.74,1.746H169.962a1.744,1.744,0,0,0,1.738-1.746V11.078a1.744,1.744,0,0,0-1.738-1.745H11.039ZM71.6,81.867a3.732,3.732,0,0,1-1.978-3.257V29.394a3.649,3.649,0,0,1,5.766-2.988l34.446,24.607a3.678,3.678,0,0,1,0,5.977S84,75.445,75.392,81.6A3.329,3.329,0,0,1,71.6,81.867ZM76.927,36.5v35l24.5-17.5Zm98.423,90.316H105.587a14.431,14.431,0,0,0-27.958,0H5.65a3.667,3.667,0,0,0,0,7.333H77.629a14.431,14.431,0,0,0,27.959,0H175.35A3.667,3.667,0,0,0,175.35,126.818ZM91.607,137.665a7.181,7.181,0,1,1,7.149-7.181A7.173,7.173,0,0,1,91.607,137.665Z" transform="translate(-2 -2)"/>
</svg>
