<svg xmlns="http://www.w3.org/2000/svg" width="101.188" height="108.469" viewBox="0 0 101.188 108.469">
  <metadata><?xpacket begin="﻿" id="W5M0MpCehiHzreSzNTczkc9d"?>
<x:xmpmeta xmlns:x="adobe:ns:meta/" x:xmptk="Adobe XMP Core 5.6-c138 79.159824, 2016/09/14-01:09:01        ">
   <rdf:RDF xmlns:rdf="http://www.w3.org/1999/02/22-rdf-syntax-ns#">
      <rdf:Description rdf:about=""/>
   </rdf:RDF>
</x:xmpmeta>
                                                                                                    
                                                                                                    
                                                                                                    
                                                                                                    
                                                                                                    
                                                                                                    
                                                                                                    
                                                                                                    
                                                                                                    
                                                                                                    
                                                                                                    
                                                                                                    
                                                                                                    
                                                                                                    
                                                                                                    
                                                                                                    
                                                                                                    
                                                                                                    
                                                                                                    
                                                                                                    
                           
<?xpacket end="w"?></metadata>
<defs>
    <style>
      .cls-1 {
        fill: #fff;
        fill-rule: evenodd;
      }
    </style>
  </defs>
  <path class="cls-1" d="M88,109.016A10.5,10.5,0,0,1,82.589,92.2L69.821,74.208A18.958,18.958,0,0,1,44.8,66.8L21.032,76.226a10.543,10.543,0,1,1-2.048-5.138l23.769-9.427A18.948,18.948,0,0,1,63.4,38.475l4.811-17.953a10.518,10.518,0,1,1,5.346,1.432L68.748,39.908a18.947,18.947,0,0,1,5.59,31.107L87.1,89A10.509,10.509,0,1,1,88,109.016ZM11.872,72.585a4.979,4.979,0,1,0,3.525,6.1A4.987,4.987,0,0,0,11.872,72.585ZM78.323,12.737a4.984,4.984,0,1,0-6.1,3.52A4.987,4.987,0,0,0,78.323,12.737ZM64.7,44.335a13.433,13.433,0,1,0,9.512,16.456A13.455,13.455,0,0,0,64.7,44.335ZM92,94.057a4.979,4.979,0,1,0,3.524,6.1A4.988,4.988,0,0,0,92,94.057Z" transform="translate(-0.063 -0.938)"/>
</svg>
