<!DOCTYPE svg PUBLIC "-//W3C//DTD SVG 20010904//EN" "http://www.w3.org/TR/2001/REC-SVG-20010904/DTD/svg10.dtd">
<svg version="1.0" xmlns="http://www.w3.org/2000/svg" width="468px" height="65px" viewBox="0 0 4680 650" preserveAspectRatio="xMidYMid meet">
<g id="layer1" fill="#ffffff" stroke="none">
 <path d="M0 325 l0 -328 143 5 c160 5 192 15 234 78 40 59 25 163 -30 206 l-25 20 29 13 c71 31 101 158 59 241 -35 68 -78 82 -257 88 l-153 5 0 -328z m330 267 c94 -46 90 -203 -6 -252 -20 -10 -70 -16 -161 -18 l-133 -4 0 146 0 146 133 0 c106 0 139 -4 167 -18z m-23 -319 c79 -37 84 -166 8 -213 -28 -17 -49 -20 -159 -20 l-126 0 0 125 0 125 121 0 c92 0 129 -4 156 -17z"/>
 <path d="M550 325 l0 -325 192 2 c174 3 193 5 196 21 3 16 -11 17 -177 17 l-181 0 0 135 0 135 165 0 c140 0 165 2 165 15 0 13 -25 15 -165 15 l-165 0 0 135 0 135 181 0 c166 0 180 1 177 18 -3 15 -22 17 -196 20 l-192 2 0 -325z"/>
 <path d="M990 638 c0 -20 222 -613 234 -626 7 -7 19 -10 27 -7 8 3 65 141 129 316 63 171 117 316 119 321 2 5 -5 8 -15 6 -14 -2 -30 -34 -61 -113 l-41 -110 -140 -3 -140 -3 -37 103 c-21 57 -42 109 -47 116 -13 15 -28 16 -28 0z m345 -340 c-79 -218 -93 -253 -99 -238 -3 8 -33 86 -65 173 l-59 157 129 0 128 0 -34 -92z"/>
 <path d="M1580 330 c0 -288 2 -321 16 -327 9 -3 24 -2 33 4 9 6 63 119 121 251 58 133 107 241 110 241 3 1 52 -108 110 -241 58 -132 112 -245 121 -251 9 -6 24 -7 33 -4 15 6 16 37 14 324 -3 296 -4 318 -21 321 -17 3 -18 -13 -15 -306 2 -171 2 -310 2 -309 -1 1 -52 118 -114 260 -84 191 -117 257 -130 257 -12 0 -45 -64 -126 -246 l-109 -246 -3 296 c-2 288 -3 296 -22 296 -20 0 -20 -7 -20 -320z"/>
 <path d="M2510 325 c0 -282 2 -325 15 -325 13 0 15 41 15 305 l0 305 155 0 c148 0 155 1 155 20 0 19 -7 20 -170 20 l-170 0 0 -325z"/>
 <path d="M2945 637 c-3 -7 -4 -152 -3 -322 3 -268 5 -310 18 -310 13 0 15 44 18 323 2 285 0 322 -13 322 -9 0 -18 -6 -20 -13z"/>
 <path d="M3222 624 c-93 -46 -97 -57 -100 -289 -3 -232 2 -249 83 -300 55 -34 150 -45 224 -25 54 14 121 73 104 91 -9 9 -20 5 -47 -19 -87 -76 -245 -65 -310 21 -20 27 -21 41 -21 222 0 181 1 195 21 222 38 50 81 68 164 68 138 0 191 -47 198 -176 l5 -79 -102 0 c-94 0 -101 -1 -101 -20 0 -19 7 -20 115 -20 l115 0 0 89 c0 100 -9 133 -48 175 -66 71 -202 89 -300 40z"/>
 <path d="M3692 328 c3 -279 5 -323 18 -323 13 0 15 24 15 153 l0 152 193 0 192 0 0 -155 c0 -131 2 -155 15 -155 13 0 15 43 15 325 0 282 -2 325 -15 325 -13 0 -15 -24 -15 -155 l0 -155 -192 0 -193 0 0 152 c0 138 -2 153 -18 156 -16 3 -17 -15 -15 -320z"/>
 <path d="M4444 637 c-2 -7 -3 -144 -2 -305 l3 -292 -108 0 c-98 0 -108 -2 -105 -17 3 -16 23 -18 226 -21 217 -2 222 -2 222 18 0 19 -6 20 -100 20 l-100 0 0 305 c0 267 -2 305 -15 305 -9 0 -18 -6 -21 -13z"/>
 </g>

</svg>