<svg xmlns="http://www.w3.org/2000/svg" width="36" height="58" viewBox="0 0 36 58">
  <metadata><?xpacket begin="﻿" id="W5M0MpCehiHzreSzNTczkc9d"?>
<x:xmpmeta xmlns:x="adobe:ns:meta/" x:xmptk="Adobe XMP Core 5.6-c138 79.159824, 2016/09/14-01:09:01        ">
   <rdf:RDF xmlns:rdf="http://www.w3.org/1999/02/22-rdf-syntax-ns#">
      <rdf:Description rdf:about=""/>
   </rdf:RDF>
</x:xmpmeta>
                                                                                                    
                                                                                                    
                                                                                                    
                                                                                                    
                                                                                                    
                                                                                                    
                                                                                                    
                                                                                                    
                                                                                                    
                                                                                                    
                                                                                                    
                                                                                                    
                                                                                                    
                                                                                                    
                                                                                                    
                                                                                                    
                                                                                                    
                                                                                                    
                                                                                                    
                                                                                                    
                           
<?xpacket end="w"?></metadata>
<defs>
    <style>
      .cls-1 {
        fill: #fff;
        fill-rule: evenodd;
      }
    </style>
  </defs>
  <path id="мышка" class="cls-1" d="M32.339,5.565C29.17,1.872,24.346,0,18,0S6.829,1.872,3.661,5.565A15.952,15.952,0,0,0,0,15.892V42.107A15.951,15.951,0,0,0,3.661,52.433C6.829,56.126,11.654,58,18,58s11.17-1.873,14.339-5.565A15.951,15.951,0,0,0,36,42.107V15.892A15.952,15.952,0,0,0,32.339,5.565ZM18,20.206a2.381,2.381,0,0,1-2.385-2.37V12.757a2.385,2.385,0,0,1,4.77,0v5.079A2.381,2.381,0,0,1,18,20.206Zm16.117,21.9c0,2.342-.777,14.022-16.117,14.022S1.882,44.448,1.882,42.107V15.892c0-2.292.747-13.535,15.176-14V8.621a4.254,4.254,0,0,0-3.326,4.136v5.079a4.253,4.253,0,0,0,3.326,4.136v7.687a0.941,0.941,0,0,0,1.883,0V21.971a4.253,4.253,0,0,0,3.326-4.136V12.757a4.254,4.254,0,0,0-3.326-4.136V1.887c14.429,0.47,15.176,11.712,15.176,14V42.107Z"/>
</svg>
